<?xml version="1.0" encoding="UTF-8"?>
<svg width="320px" height="160px" viewBox="0 0 320 160" version="1.1" xmlns="http://www.w3.org/2000/svg" xmlns:xlink="http://www.w3.org/1999/xlink">
    <!-- Generator: Sketch 53.2 (72643) - https://sketchapp.com -->
    <title>logo</title>
    <desc>Created with Sketch.</desc>
    <g id="Page-1" stroke="none" stroke-width="1" fill="none" fill-rule="evenodd">
        <g id="logo">
            <rect id="Rectangle" stroke="#F100BC" stroke-width="5" x="2.5" y="2.5" width="315" height="155" rx="4"></rect>
            <path d="M38.518591,57.4931507 L38.518591,74.8395303 L29,74.8395303 L29,29.7514677 L42.1506849,29.7514677 C48.2250489,29.7514677 52.7964775,30.7534247 55.739726,33.0078278 C58.6829746,35.2622309 60.1232877,38.6438356 60.1232877,43.2152642 C60.1232877,45.8454012 59.4970646,48.2250489 57.9315068,50.2915851 C56.4911937,52.4207436 54.4246575,54.0489237 51.6692759,55.1761252 L65.0078278,74.9021526 L54.3620352,74.9021526 L43.590998,57.555773 L38.5812133,57.555773 L38.518591,57.4931507 Z M38.518591,49.7279843 L41.6497065,49.7279843 C44.6555773,49.7279843 46.8473581,49.2270059 48.2876712,48.1624266 C49.7279843,47.1604697 50.4794521,45.6575342 50.4794521,43.4657534 C50.4794521,41.2739726 49.7279843,39.7084149 48.2876712,38.8943249 C46.7847358,37.8923679 44.5303327,37.4540117 41.3992172,37.4540117 L38.518591,37.4540117 L38.518591,49.665362 L38.518591,49.7279843 Z M96.6320939,74.8395303 L70.7064579,74.8395303 L70.7064579,29.7514677 L96.6320939,29.7514677 L96.6320939,37.5166341 L80.3502935,37.5166341 L80.3502935,47.4109589 L95.5675147,47.4109589 L95.5675147,55.2387476 L80.3502935,55.2387476 L80.3502935,66.8864971 L96.6320939,66.8864971 L96.6320939,74.8395303 L96.6320939,74.8395303 Z M137.336595,43.7162427 C137.336595,48.6007828 135.771037,52.295499 132.765166,54.8630137 C129.634051,57.4931507 125.375734,58.7455969 119.802348,58.7455969 L115.669276,58.7455969 L115.669276,74.8395303 L106.150685,74.8395303 L106.150685,29.7514677 L120.553816,29.7514677 C126.001957,29.7514677 130.197652,30.816047 133.078278,33.1956947 C135.896282,35.5753425 137.336595,39.0821918 137.336595,43.7162427 L137.336595,43.7162427 Z M115.669276,50.8551859 L118.800391,50.8551859 C121.806262,50.8551859 123.998043,50.3542074 125.438356,49.1643836 C126.941292,47.9119374 127.630137,46.2837573 127.630137,44.1545988 C127.630137,41.8375734 127.003914,40.2093933 125.751468,39.1448141 C124.499022,38.0176125 122.620352,37.5166341 120.11546,37.5166341 L115.731898,37.5166341 L115.731898,50.8551859 L115.669276,50.8551859 Z M145.853229,74.8395303 L145.853229,29.7514677 L155.497065,29.7514677 L155.497065,66.8864971 L173.657534,66.8864971 L173.657534,74.8395303 L145.853229,74.8395303 Z M209.227006,74.8395303 L205.908023,64.0684932 L189.500978,64.0684932 L186.181996,74.9021526 L175.911937,74.9021526 L191.818004,29.5636008 L203.528376,29.5636008 L219.497065,74.8395303 L209.227006,74.8395303 Z M203.590998,56.0528376 C200.64775,46.2837573 198.894325,40.7729941 198.581213,39.5205479 C198.142857,38.2681018 197.95499,37.1409002 197.704501,36.3894325 C197.078278,39.0821918 195.074364,45.5949119 191.880626,55.9902153 L203.778865,55.9902153 L203.590998,56.0528376 Z M244.420744,36.9530333 C240.78865,36.9530333 237.970646,38.3307241 236.029354,41.0234834 C234.02544,43.778865 233.023483,47.5362035 233.023483,52.295499 C233.023483,62.4403131 236.780822,67.4500978 244.295499,67.4500978 C247.551859,67.4500978 251.37182,66.6986301 255.880626,65.0704501 L255.880626,73.0861057 C252.123288,74.6516634 248.052838,75.4031311 243.481409,75.4031311 C236.906067,75.4031311 231.896282,73.5244618 228.452055,69.4540117 C224.945205,65.446184 223.191781,59.7475538 223.191781,52.295499 C223.191781,47.5988258 224.131115,43.5283757 225.821918,39.9589041 C227.51272,36.4520548 230.017613,33.6966732 233.21135,31.8180039 C236.342466,29.9393346 240.099804,29 244.483366,29 C248.866928,29 253.250489,30.1272016 257.634051,32.2563601 L254.502935,40.0215264 C252.874755,39.2700587 251.183953,38.518591 249.493151,37.9549902 C247.739726,37.3287671 246.111546,37.0156556 244.483366,37.0156556 L244.420744,36.9530333 Z M291.51272,74.8395303 L265.524462,74.8395303 L265.524462,29.7514677 L291.51272,29.7514677 L291.51272,37.5166341 L275.105675,37.5166341 L275.105675,47.4109589 L290.385519,47.4109589 L290.385519,55.2387476 L275.105675,55.2387476 L275.105675,66.8864971 L291.51272,66.8864971 L291.51272,74.8395303 L291.51272,74.8395303 Z M136.522505,130.806262 L125.626223,95.3620352 L125.375734,95.3620352 C125.688845,102.563601 125.876712,107.385519 125.876712,109.765166 L125.876712,130.806262 L117.360078,130.806262 L117.360078,85.7181996 L130.448141,85.7181996 L141.093933,120.16047 L141.2818,120.16047 L152.553816,85.7181996 L165.704501,85.7181996 L165.704501,130.806262 L156.749511,130.806262 L156.749511,109.32681 L156.749511,105.945205 L157.187867,95.4246575 L156.937378,95.4246575 L145.289628,130.806262 L136.522505,130.806262 Z M203.09002,130.806262 L177.039139,130.806262 L177.039139,85.7181996 L203.09002,85.7181996 L203.09002,93.4833659 L186.620352,93.4833659 L186.620352,103.377691 L201.837573,103.377691 L201.837573,111.205479 L186.620352,111.205479 L186.620352,122.853229 L203.09002,122.853229 L203.09002,130.806262 Z" id="Shape" fill="#F100BC" fill-rule="nonzero"></path>
        </g>
    </g>
</svg>