<svg xmlns="http://www.w3.org/2000/svg" viewBox="0 0 512 512"><path fill="#F100BC" d="M63.2 181.6v27.7H48v-72h21c9.7 0 17 1.6 21.7 5.2 4.7 3.6 7 9 7 16.3 0 4.2-1 8-3.5 11.3-2.3 3.4-5.6 6-10 7.8l21.3 31.5h-17l-17.2-27.7h-8zm0-12.4h5c4.8 0 8.3-.8 10.6-2.5 2.3-1.6 3.5-4 3.5-7.5s-1.2-6-3.5-7.3c-2.4-1.6-6-2.3-11-2.3h-4.6v19.5zM156 209.3h-41.4v-72H156v12.4h-26v15.8h24.3V178H130v18.6h26v12.7zM221 159.6c0 7.8-2.5 13.7-7.3 17.8-5 4.2-11.8 6.2-20.7 6.2h-6.6v25.7h-15.2v-72h23c8.7 0 15.4 1.7 20 5.5 4.5 3.8 6.8 9.4 6.8 16.8zM186.4 171h5c4.8 0 8.3-.8 10.6-2.7 2.4-2 3.5-4.6 3.5-8 0-3.7-1-6.3-3-8-2-1.8-5-2.6-9-2.6h-7V171zM234.6 209.3v-72H250v59.3h29v12.7h-44.4zM335.8 209.3l-5.3-17.2h-26.2l-5.3 17.3h-16.4L308 137h18.7l25.5 72.3h-16.4zm-9-30c-4.7-15.6-7.5-24.4-8-26.4-.7-2-1-3.8-1.4-5-1 4.3-4.2 14.7-9.3 31.3h19zM392 148.8c-5.8 0-10.3 2.2-13.4 6.5-3.2 4.4-4.8 10.4-4.8 18 0 16.2 6 24.2 18 24.2 5.2 0 11.3-1.2 18.5-3.8v12.8c-6 2.5-12.5 3.7-19.8 3.7-10.5 0-18.5-3-24-9.5-5.6-6.4-8.4-15.5-8.4-27.4 0-7.5 1.5-14 4.2-19.7 2.7-5.6 6.7-10 11.8-13 5-3 11-4.5 18-4.5s14 1.8 21 5.2l-5 12.4c-2.6-1.2-5.3-2.4-8-3.3-2.8-1-5.4-1.5-8-1.5zM467.2 209.3h-41.5v-72h41.5v12.4H441v15.8h24.4V178H441v18.6h26.2v12.7zM219.7 379.3l-17.4-56.6h-.4c.5 11.5.8 19.2.8 23v33.6h-13.6v-72H210l17 55h.3l18-55h21v72H252V345v-5.4l.7-16.8h-.4l-18.6 56.5h-14zM326 379.3h-41.6v-72H326v12.4h-26.3v15.8H324V348h-24.3v18.6H326v12.7z"/></svg>