<svg xmlns="http://www.w3.org/2000/svg" xmlns:xlink="http://www.w3.org/1999/xlink" viewBox="0 0 20 17"><defs><path id="a" d="M22 6c-.8.3-1.5.5-2.3.6.8-.5 1.5-1.3 1.8-2.3-.8.5-1.7.9-2.6 1A4 4 0 0 0 16 4a4 4 0 0 0-4 4v1c-3.5-.2-6.5-1.8-8.5-4.3-.4.6-.6 1.3-.6 2 0 1.5.8 2.7 1.9 3.5-.7 0-1.4-.2-1.9-.5a4 4 0 0 0 3.3 4L5 14h-.8a4 4 0 0 0 3.9 2.8A8.3 8.3 0 0 1 3 18.4H2a11.7 11.7 0 0 0 18-9.9V8c.8-.6 1.4-1.3 2-2z"/></defs><g fill="none" fill-rule="evenodd" transform="translate(-2 -4)"><mask id="b" fill="#fff"><use xlink:href="#a"/></mask><g fill="#FFF" mask="url(#b)"><path d="M0 0h24v24H0z"/></g></g></svg>