<svg xmlns="http://www.w3.org/2000/svg" xmlns:xlink="http://www.w3.org/1999/xlink" viewBox="0 0 20 20"><defs><path id="a" d="M21.167 2H2.833c-.5 0-.833.333-.833.833v18.334c0 .5.333.833.833.833h18.334c.5 0 .833-.333.833-.833V2.833c0-.5-.333-.833-.833-.833zM7.917 19.083H5V9.5h3v9.583h-.083zm-1.5-10.916c-.917 0-1.75-.75-1.75-1.75 0-.917.75-1.75 1.75-1.75.916 0 1.75.75 1.75 1.75s-.75 1.75-1.75 1.75zm12.666 10.916h-3v-4.666c0-1.084 0-2.5-1.5-2.5-1.583 0-1.75 1.166-1.75 2.416v4.75h-3V9.5h2.834v1.333c.416-.75 1.333-1.5 2.833-1.5 3 0 3.583 2 3.583 4.584v5.166z"/></defs><g fill="none" fill-rule="evenodd" transform="translate(-2 -2)"><mask id="b" fill="#fff"><use xlink:href="#a"/></mask><g fill="#FFF" mask="url(#b)"><path d="M0 0h24v24H0z"/></g></g></svg>