<svg xmlns="http://www.w3.org/2000/svg" xmlns:xlink="http://www.w3.org/1999/xlink" viewBox="0 0 20 20"><defs><path id="a" d="M12 3.802c2.67 0 2.987.01 4.04.058 1.14.052 2.195.28 3.008 1.092.812.813 1.04 1.869 1.092 3.007.048 1.054.058 1.371.058 4.041 0 2.67-.01 2.987-.058 4.04-.052 1.14-.28 2.195-1.093 3.008-.812.812-1.868 1.04-3.006 1.092-1.054.048-1.371.058-4.041.058-2.67 0-2.987-.01-4.04-.058-1.14-.052-2.195-.28-3.008-1.093-.812-.812-1.04-1.868-1.092-3.006-.048-1.054-.058-1.371-.058-4.041 0-2.67.01-2.987.058-4.04.052-1.14.28-2.195 1.092-3.008.813-.812 1.869-1.04 3.007-1.092C9.013 3.812 9.33 3.802 12 3.802zM12 2c2.716 0 3.057.012 4.123.06 1.625.074 3.053.473 4.199 1.618 1.146 1.146 1.544 2.574 1.618 4.199.048 1.066.06 1.407.06 4.123s-.012 3.057-.06 4.123c-.074 1.625-.473 3.053-1.618 4.199-1.146 1.146-2.574 1.544-4.199 1.618-1.066.048-1.407.06-4.123.06s-3.057-.012-4.123-.06c-1.625-.074-3.053-.473-4.199-1.618-1.145-1.146-1.544-2.574-1.618-4.199C2.012 15.057 2 14.716 2 12s.012-3.057.06-4.123c.074-1.625.473-3.053 1.618-4.199C4.824 2.533 6.252 2.134 7.877 2.06 8.943 2.012 9.284 2 12 2zm0 4.865a5.135 5.135 0 1 0 0 10.27 5.135 5.135 0 0 0 0-10.27zm0 8.468a3.333 3.333 0 1 1 0-6.667 3.333 3.333 0 0 1 0 6.667zm5.338-7.471a1.2 1.2 0 1 0 0-2.4 1.2 1.2 0 0 0 0 2.4z"/></defs><g fill="none" fill-rule="evenodd" transform="translate(-2 -2)"><mask id="b" fill="#fff"><use xlink:href="#a"/></mask><g fill="#FFF" mask="url(#b)"><path d="M0 0h24v24H0z"/></g></g></svg>