<svg xmlns="http://www.w3.org/2000/svg" xmlns:xlink="http://www.w3.org/1999/xlink" viewBox="0 0 24 15"><defs><path id="a" d="M6.933 13.136a.999.999 0 1 1-1.997 0 .999.999 0 0 1 1.997 0zm11.04-.998a.998.998 0 1 0 0 1.996.998.998 0 0 0 0-1.996zm3.725 5.812a6.006 6.006 0 0 1-8.433-1.023l-1.29 1.93-1.279-1.914a6.001 6.001 0 0 1-9.52-7.305A7.782 7.782 0 0 0 0 7.257l3.762-.002a14.937 14.937 0 0 1 8.211-2.252 14.6 14.6 0 0 1 8.007 2.223l4.01.003a7.738 7.738 0 0 0-1.182 2.402 6.006 6.006 0 0 1-1.11 8.319zm-10.891-4.762a4.795 4.795 0 1 0-9.59-.003 4.795 4.795 0 0 0 9.59.004v-.001zm1.191-.436a5.987 5.987 0 0 1 5.797-5.542 14.131 14.131 0 0 0-5.822-1.16 14.867 14.867 0 0 0-5.84 1.136 6.01 6.01 0 0 1 5.865 5.566zm10.488-1.198a4.795 4.795 0 0 0-8.998 3.318v.001a4.795 4.795 0 1 0 8.998-3.32zM8.901 13.136v.005a2.967 2.967 0 1 1 0-.005zm-1.021 0v-.004a1.945 1.945 0 1 0 0 .004zm13.059 0v.002a2.967 2.967 0 1 1-5.934 0 2.967 2.967 0 0 1 5.934-.002zm-1.021 0a1.945 1.945 0 1 0-3.89 0 1.945 1.945 0 0 0 3.89 0z"/></defs><g fill="none" fill-rule="evenodd" transform="translate(0 -5)"><mask id="b" fill="#fff"><use xlink:href="#a"/></mask><g fill="#FFF" mask="url(#b)"><path d="M0 0h24v24H0z"/></g></g></svg>